<svg width="46" height="44" viewBox="0 0 46 44" fill="none" xmlns="http://www.w3.org/2000/svg">
<path d="M25.2644 1.87721L30.8587 12.3597C31.1772 12.962 31.7588 13.3775 32.4304 13.5021L44.1315 15.5792C45.8762 15.8908 46.5686 18.0233 45.3431 19.3041L37.097 27.8618C36.6262 28.3534 36.4046 29.0319 36.4946 29.7035L38.1286 41.4738C38.3709 43.2324 36.5569 44.5479 34.9645 43.7725L24.2743 38.5797C23.665 38.282 22.945 38.282 22.3357 38.5797L11.6455 43.7725C10.0531 44.5479 8.23213 43.2324 8.48138 41.4738L10.1154 29.7035C10.2123 29.0319 9.99074 28.3465 9.51301 27.8618L1.2669 19.3041C0.0344796 18.0233 0.726848 15.8908 2.47854 15.5792L14.1796 13.5021C14.8512 13.3844 15.4258 12.962 15.7513 12.3597L21.3456 1.87721C22.1834 0.312455 24.4266 0.312455 25.2575 1.87721H25.2644Z" fill="white"/>
<path d="M32.2296 16.3823H27.4384C27.0646 16.3823 26.7115 16.5623 26.4968 16.867L24.1012 20.2319L27.0923 24.4346L32.4789 16.8601C32.6243 16.6593 32.4789 16.3754 32.2296 16.3754V16.3823Z" fill="#3D5BFD"/>
<path d="M24.1012 30.8667L26.4968 34.2316C26.7115 34.5363 27.0646 34.7163 27.4384 34.7163H32.2296C32.4789 34.7163 32.6243 34.4393 32.4789 34.2316L27.0923 26.6571L24.1012 30.8598V30.8667Z" fill="#3D5BFD"/>
<path d="M14.3873 34.7232H19.1785C19.5524 34.7232 19.9055 34.5432 20.1201 34.2385L23.3119 29.752L20.3209 25.5493L14.138 34.2385C13.9926 34.4393 14.138 34.7232 14.3873 34.7232Z" fill="url(#paint0_linear_4_44059)"/>
<path d="M25.9083 25.0092L23.305 21.3535L20.1132 16.867C19.8985 16.5623 19.5454 16.3823 19.1716 16.3823H14.3804C14.1311 16.3823 13.9857 16.6593 14.1311 16.867L20.314 25.5562L22.1003 28.0626C22.4603 28.5334 22.668 29.1219 22.668 29.7589C22.668 30.3405 22.4949 30.8736 22.1903 31.3236L23.305 29.7589L25.9083 26.1032C26.1368 25.7778 26.1368 25.3416 25.9083 25.0162V25.0092Z" fill="#BF00FD"/>
<defs>
<linearGradient id="paint0_linear_4_44059" x1="19.2131" y1="30.7697" x2="23.3881" y2="27.2179" gradientUnits="userSpaceOnUse">
<stop stop-color="#F61701"/>
<stop offset="0.1" stop-color="#F21806"/>
<stop offset="0.23" stop-color="#E71C15"/>
<stop offset="0.36" stop-color="#D4232E"/>
<stop offset="0.51" stop-color="#BA2C51"/>
<stop offset="0.66" stop-color="#99387E"/>
<stop offset="0.82" stop-color="#7147B5"/>
<stop offset="0.98" stop-color="#4258F5"/>
<stop offset="1" stop-color="#3D5BFD"/>
</linearGradient>
</defs>
</svg>
